<svg width="90" height="30" xmlns="http://www.w3.org/2000/svg">

 <g>
  <title>background</title>
  <rect fill="none" id="canvas_background" height="32" width="92" y="-1" x="-1"/>
 </g>
 <g>
  <title>Layer 1</title>
  <path fill="#007fb1" id="path5" d="m64.438169,6.669814c0,-0.87562 0.727469,-1.585375 1.624426,-1.585375l18.734238,0c0.897359,0 1.624828,0.709755 1.624828,1.585375l0,18.953244c0,0.875217 -0.727872,1.584972 -1.624828,1.584972l-18.734238,0c-0.897359,0 -1.624426,-0.709755 -1.624426,-1.584972l0,-18.953244l0,0z"/>
  <polygon fill="#ffffff" points="12.073287010192871,20.60364532470703 6.218910217285156,20.60364532470703 6.218910217285156,9.408185005187988 2.8988037109375,9.408185005187988 2.8988037109375,23.615772247314453 2.8988037109375,23.615772247314453 12.073287010192871,23.615772247314453 " id="polygon7"/>
  <path fill="#ffffff" fill-rule="evenodd" id="path9" d="m16.718299,23.615775l0,-9.989312l-3.320511,0l0,9.989312l3.320511,0l0,0zm-1.660256,-11.353266c1.157831,0 1.878859,-0.766922 1.878859,-1.726279c-0.02174,-0.979889 -0.720625,-1.725474 -1.856314,-1.725474c-1.136092,0 -1.878859,0.745988 -1.878859,1.725474c0,0.959357 0.720625,1.726279 1.834977,1.726279l0.021337,0l0,0z" clip-rule="evenodd"/>
  <path fill="#ffffff" fill-rule="evenodd" id="path11" d="m18.259792,23.615775l3.320511,0l0,-5.578604c0,-0.298315 0.02174,-0.596629 0.109503,-0.809596c0.23994,-0.596629 0.786246,-1.214998 1.703332,-1.214998c1.201713,0 1.682398,0.916281 1.682398,2.258495l0,5.3443l3.320109,0l0,-5.727963c0,-3.068494 -1.638114,-4.496056 -3.822936,-4.496056c-1.791095,0 -2.577342,1.000823 -3.014548,1.683203l0.022142,0l0,-1.448899l-3.320511,0c0.043479,0.93802 0,9.990117 0,9.990117l0,0z" clip-rule="evenodd"/>
  <path fill="#ffffff" id="path13" d="m33.079708,9.408189l-3.320914,0l0,14.207586l3.320914,0l0,-3.238787l0.829725,-1.044302l2.599484,4.283089l4.085018,0l-4.36884,-6.200596l3.822533,-4.218676l-3.997255,0c0,0 -2.730323,3.774626 -2.970666,4.221897l0,-8.01021l0,0z"/>
  <path fill="#ffffff" fill-rule="evenodd" id="path15" d="m49.473323,19.449032c0.043076,-0.256848 0.1091,-0.748403 0.1091,-1.304774c0,-2.582978 -1.31041,-5.204201 -4.761761,-5.204201c-3.692096,0 -5.395831,2.919538 -5.395831,5.567734c0,3.275422 2.07532,5.32095 5.701392,5.32095c1.442055,0 2.773803,-0.212967 3.866415,-0.66064l-0.436803,-2.192874c-0.895749,0.297107 -1.812835,0.44566 -2.948926,0.44566c-1.551155,0 -2.905447,-0.636485 -3.014548,-1.993595l6.880963,0.02174l0,0zm-6.902702,-2.246418c0.087361,-0.85227 0.655004,-2.110344 2.074917,-2.110344c1.506871,0 1.856717,1.34302 1.856717,2.110344l-3.931634,0l0,0z" clip-rule="evenodd"/>
  <path fill="#ffffff" fill-rule="evenodd" id="path17" d="m57.778225,9.408189l0,4.725126l-0.043076,0c-0.481088,-0.703314 -1.485937,-1.171922 -2.818087,-1.171922c-2.555602,0 -4.806046,2.045528 -4.783904,5.540359c0,3.239189 2.031035,5.348326 4.565301,5.348326c1.376031,0 2.686844,-0.596227 3.342251,-1.746811l0.065621,0l0.13084,1.512507l2.948926,0c-0.043882,-0.703314 -0.087763,-1.917909 -0.087763,-3.110765l0,-11.09682l-3.320109,0l0,0zm0,9.58391c0,0.255641 -0.022142,0.511684 -0.065621,0.724248c-0.196058,0.916281 -0.982305,1.555986 -1.943675,1.555986c-1.376434,0 -2.272183,-1.108313 -2.272183,-2.85593c0,-1.640529 0.764507,-2.961407 2.29352,-2.961407c1.026589,0 1.748019,0.702911 1.94448,1.576518c0.043076,0.192032 0.043076,0.405402 0.043076,0.596629l0,1.363954l0.000403,0z" clip-rule="evenodd"/>
  <path fill="#ffffff" fill-rule="evenodd" id="path19" d="m71.101737,23.6041l0,-9.989715l-3.320109,0l0,9.989715l3.320109,0l0,0zm-1.659853,-11.353669c1.157831,0 1.878456,-0.767325 1.878456,-1.726279c-0.02174,-0.979889 -0.720625,-1.725877 -1.856314,-1.725877c-1.135689,0 -1.878456,0.74639 -1.878456,1.725877c0,0.958955 0.720625,1.726279 1.834977,1.726279l0.021337,0l0,0z" clip-rule="evenodd"/>
  <path fill="#ffffff" fill-rule="evenodd" id="path21" d="m72.939129,23.6041l3.320511,0l0,-5.578604c0,-0.298315 0.02174,-0.596629 0.1091,-0.809999c0.23994,-0.596629 0.786246,-1.214998 1.703332,-1.214998c1.201713,0 1.682398,0.916281 1.682398,2.258898l0,5.3443l3.320109,0l0,-5.728365c0,-3.068091 -1.638114,-4.496056 -3.822936,-4.496056c-1.791095,0 -2.577342,1.001226 -3.014145,1.683606l0.022142,0l0,-1.449302l-3.320511,0c0.043882,0.937618 0,9.99052 0,9.99052l0,0z" clip-rule="evenodd"/>
 </g>
</svg>